<svg width="21" height="21" viewBox="0 0 21 21" fill="none" xmlns="http://www.w3.org/2000/svg">
<path d="M20.7204 21H20.0298C17.1908 20.9998 14.4471 19.9625 12.3017 18.0783L11.5753 17.4402C11.1724 17.48 10.765 17.5 10.3602 17.5C7.61791 17.5 5.03399 16.6061 3.08441 14.9831C1.09538 13.3273 0 11.1136 0 8.75C0 6.38641 1.09538 4.17274 3.08441 2.51689C5.03399 0.893856 7.61791 0 10.3602 0C13.1025 0 15.6865 0.893856 17.636 2.51689C19.6251 4.17274 20.7204 6.38641 20.7204 8.75C20.7195 10.0064 20.4066 11.2424 19.8106 12.3441C19.2933 13.3036 18.6043 14.1572 17.7789 14.8613C18.3958 16.451 19.3281 17.8954 20.5181 19.1051L20.7204 19.3101V21ZM12.0203 15.9785L13.2064 17.0203C14.8423 18.4572 16.8792 19.3419 19.034 19.5517C17.8451 18.2048 16.9269 16.6357 16.331 14.9324L16.1413 14.3872L16.5388 14.078C18.3446 12.6734 19.3391 10.7813 19.3391 8.75C19.3391 4.69718 15.3112 1.4 10.3602 1.4C5.40929 1.4 1.38136 4.69718 1.38136 8.75C1.38136 12.8028 5.40929 16.1 10.3602 16.1C10.8133 16.1 11.266 16.072 11.7157 16.0163L12.0203 15.9785Z" fill="black"/>
</svg>
