<svg width="25" height="21" viewBox="0 0 25 21" fill="none" xmlns="http://www.w3.org/2000/svg">
<path d="M22.0348 1.83343C21.461 1.25188 20.7798 0.790631 20.03 0.476042C19.2802 0.161454 18.4766 -0.000308391 17.6651 4.41377e-07C16.8537 0.000309274 16.0502 0.162683 15.3006 0.477842C14.5511 0.793001 13.8702 1.25477 13.2968 1.83675L12.5484 2.60455L11.8061 1.83841L11.8013 1.83352C11.2278 1.25225 10.5469 0.791157 9.79753 0.476573C9.04817 0.161989 8.24501 7.45036e-05 7.43391 7.45036e-05C6.62281 7.45036e-05 5.81965 0.161989 5.0703 0.476573C4.32094 0.791157 3.64005 1.25225 3.06652 1.83352L2.73309 2.17145C1.5748 3.34538 0.924072 4.93756 0.924072 6.59774C0.924072 8.25793 1.5748 9.85011 2.73309 11.024L11.5332 19.9427L12.5269 20.998L12.5506 20.9739L12.5763 21L13.5074 20.0044L22.3683 11.0239C23.5248 9.84903 24.1744 8.2572 24.1744 6.5976C24.1744 4.938 23.5248 3.34617 22.3683 2.17131L22.0348 1.83343ZM21.2762 9.91734L12.5506 18.7608L3.82487 9.91734C2.95615 9.03689 2.46811 7.84275 2.46811 6.59762C2.46811 5.35249 2.95615 4.15835 3.82487 3.27791L4.15834 2.93998C5.02664 2.05997 6.20417 1.56539 7.43213 1.56492C8.66008 1.56445 9.83797 2.05814 10.7069 2.93749L12.545 4.83433L14.3919 2.93998C14.822 2.50403 15.3327 2.15821 15.8947 1.92227C16.4567 1.68633 17.0591 1.56489 17.6674 1.56489C18.2757 1.56489 18.8781 1.68633 19.4401 1.92227C20.0022 2.15821 20.5128 2.50403 20.943 2.93998L21.2764 3.27786C22.1438 4.15903 22.6309 5.35293 22.6309 6.59764C22.6308 7.84235 22.1437 9.03622 21.2762 9.91734Z" fill="black"/>
</svg>
