<svg width="20" height="21" viewBox="0 0 20 21" fill="none" xmlns="http://www.w3.org/2000/svg">
<path d="M16.215 14.3505C15.7125 14.3505 15.2167 14.4678 14.766 14.6931C14.3153 14.9184 13.9218 15.2458 13.6159 15.6499L6.53935 11.5794C6.77712 10.8802 6.77712 10.1204 6.53935 9.42117L13.6159 5.35064C14.1098 6.00015 14.8233 6.44157 15.6191 6.58997C16.4149 6.73836 17.2367 6.58324 17.9264 6.15445C18.6161 5.72566 19.125 5.0535 19.3551 4.26732C19.5852 3.48113 19.5203 2.63647 19.1729 1.89586C18.8255 1.15525 18.2201 0.571023 17.4732 0.255601C16.7263 -0.0598211 15.8907 -0.0841529 15.1272 0.187288C14.3637 0.458728 13.7262 1.00676 13.3374 1.72593C12.9486 2.44511 12.8359 3.2846 13.0211 4.08288L5.82407 8.22279C5.3737 7.73724 4.78978 7.40003 4.14802 7.25491C3.50626 7.10979 2.83629 7.16344 2.22499 7.40892C1.61368 7.65441 1.08926 8.08038 0.719743 8.6316C0.350222 9.18283 0.152649 9.83386 0.152649 10.5003C0.152649 11.1667 0.350222 11.8177 0.719743 12.3689C1.08926 12.9202 1.61368 13.3461 2.22499 13.5916C2.83629 13.8371 3.50626 13.8908 4.14802 13.7456C4.78978 13.6005 5.3737 13.2633 5.82407 12.7777L13.0212 16.9177C12.866 17.5897 12.9211 18.294 13.1787 18.9329C13.4363 19.5718 13.8837 20.1136 14.4588 20.4832C15.0339 20.8527 15.7083 21.0318 16.3883 20.9954C17.0684 20.959 17.7204 20.709 18.2539 20.2802C18.7875 19.8513 19.1761 19.2648 19.3659 18.6019C19.5557 17.9391 19.5373 17.2329 19.3132 16.5811C19.0891 15.9294 18.6705 15.3645 18.1153 14.9648C17.5601 14.5651 16.896 14.3504 16.215 14.3505ZM16.215 1.39982C16.5907 1.39982 16.9579 1.51273 17.2703 1.72426C17.5827 1.93579 17.8261 2.23645 17.9699 2.58822C18.1137 2.93998 18.1513 3.32705 18.078 3.70048C18.0047 4.07392 17.8238 4.41694 17.5581 4.68616C17.2925 4.95539 16.954 5.13874 16.5856 5.21302C16.2171 5.2873 15.8352 5.24918 15.4881 5.10347C15.141 4.95777 14.8444 4.71102 14.6357 4.39444C14.427 4.07786 14.3155 3.70567 14.3155 3.32492C14.3161 2.81452 14.5164 2.3252 14.8725 1.9643C15.2286 1.60339 15.7114 1.40039 16.215 1.39982ZM3.43678 12.4254C3.0611 12.4254 2.69386 12.3125 2.38149 12.1009C2.06913 11.8894 1.82567 11.5887 1.6819 11.237C1.53814 10.8852 1.50052 10.4981 1.57381 10.1247C1.6471 9.75127 1.82801 9.40825 2.09365 9.13902C2.3593 8.86979 2.69775 8.68645 3.06621 8.61216C3.43467 8.53788 3.81659 8.57601 4.16368 8.72171C4.51076 8.86742 4.80741 9.11416 5.01613 9.43074C5.22485 9.74732 5.33625 10.1195 5.33625 10.5003C5.33569 11.0107 5.13539 11.5 4.77929 11.8609C4.42319 12.2218 3.94038 12.4248 3.43678 12.4254ZM16.215 19.6007C15.8393 19.6007 15.4721 19.4878 15.1597 19.2763C14.8474 19.0647 14.6039 18.7641 14.4601 18.4123C14.3164 18.0606 14.2788 17.6735 14.352 17.3001C14.4253 16.9266 14.6062 16.5836 14.8719 16.3144C15.1375 16.0451 15.476 15.8618 15.8444 15.7875C16.2129 15.7132 16.5948 15.7514 16.9419 15.8971C17.289 16.0428 17.5856 16.2895 17.7944 16.6061C18.0031 16.9227 18.1145 17.2949 18.1145 17.6756C18.1139 18.186 17.9136 18.6753 17.5575 19.0362C17.2014 19.3971 16.7186 19.6001 16.215 19.6007Z" fill="black"/>
</svg>
